#!OML:ASF F:\VICON\USERDATA\INSTALL\rory3\rory3.ASF
:FULLY-SPECIFIED
:DEGREES
55
root 0.7443761669083622 18.244749690524372 13.056938179282959 5.071799134401678 -0.6994335751262812 -1.723465278500036
lfemur -16.91347722113999 -1.235903704568609 -23.436658502072596
ltibia 47.32170432731385
lfoot 4.17475869984197 -8.520583651179484
ltoes -14.975110882686522
rfemur -16.08689681694914 1.0521376066282568 29.085386668828097
rtibia 75.22650839277394
rfoot 18.51057534524115 -6.4042031928253795
rtoes 11.941370203486983
lowerback 14.575838790426124 1.8580541072613759 2.9476686907974683
upperback -0.942784166254838 3.5232780135063155 0.1770675921348397
thorax -8.313575471960243 1.8560768525586666 -2.4748504555816475
lowerneck -18.67778876076965 -4.12787616117295 -2.845825415638023
upperneck 6.722848842946763 -6.672796486843486 6.946401351740123
head 5.351454686895122 -2.537653552756006 1.7862808534634858
lclavicle -1.5429246702338576e-15 -3.3056532397722466e-15
lhumerus -58.08341741822898 -3.7608577666277094 86.84061151865009
lradius 110.86000409540772
lwrist 30.925689392309003
lhand -23.900375202541078 3.926123951139326
lfingers 7.12502
lthumb 2.4063684511292527 33.76873742296636
rclavicle -1.5439962926198845e-15 -3.295955601615402e-15
rhumerus -52.654702007605245 10.560429422177712 -95.49527698228925
rradius 121.79930826672614
rwrist -20.731615099897862
rhand -18.227596277841172 39.82668306944402
rfingers 7.12502
rthumb 7.9406768603230615 10.126331396389809
56
root 0.7594629069034006 18.24094780807752 13.755763077422369 4.964539420581201 -0.6060811710344529 -1.4825252647431912
lfemur -13.917800790717806 -0.6783120786288097 -23.895447563679525
ltibia 51.14700074359806
lfoot 4.089715094859096 -8.321708018771362
ltoes -14.500373027605319
rfemur -17.97845583896342 1.0444635280377736 28.52700580546037
rtibia 88.97436740358859
rfoot 17.573909564429435 -6.707560513203762
rtoes 10.032994656528913
lowerback 14.905034457526817 1.7214497838363965 2.252702901728485
upperback -0.7140631929197283 3.1553154083697947 -0.008695740055815415
thorax -8.40702790265091 1.8181290567972215 -2.207743350515058
lowerneck -18.5981267479573 -4.173532536169323 -2.8638131996466734
upperneck 6.709631539905011 -6.417102884148445 6.884991188484197
head 5.352550873089982 -2.507691050876746 1.8120088533473873
lclavicle -1.5429243161746924e-15 -3.3056534535445597e-15
lhumerus -56.111893350004266 -4.755186666015226 87.84992415695538
lradius 112.7600905708
lwrist 30.886111828384134
lhand -23.938149538586842 3.8714178299344004
lfingers 7.12502
lthumb 2.3722752685726447 33.72574137764239
rclavicle -1.5439970321051838e-15 -3.2959561347437487e-15
rhumerus -54.03195230418771 10.504844149130921 -95.51788609222062
rradius 120.32141494157588
rwrist -20.20868204625754
rhand -18.21112859692279 39.837620300215484
rfingers 7.12502
rthumb 7.947000157869523 10.117774987529748
57
root 0.7702072875329649 18.25475615578445 14.521384325696197 4.891652356439709 -0.6183881888487838 -1.2452403643496877
lfemur -11.637013386519104 -0.3689163126273455 -24.207222224605488
ltibia 53.83862592705534
lfoot 2.6371347416605104 -8.096309604397604
ltoes -14.04461596163517
rfemur -19.403466782917896 1.2042567904728305 28.196956591599736
rtibia 101.13278453672804
rfoot 17.1577768975391 -6.499684852617994
rtoes 7.974773307441788
lowerback 15.289429243897244 1.545747793105389 1.608423994678675
upperback -0.47549251775711276 2.723983475522161 -0.07878983526740369
thorax -8.535623578285884 1.7507022485984938 -1.8922693892482179
lowerneck -18.554366727037035 -4.199389007514342 -2.880313711077929
upperneck 6.689006751368726 -6.0421618322393895 6.8389283001969545
head 5.357726612565067 -2.420807470231556 1.830179567343955
lclavicle -1.5429247853359553e-15 -3.30565516847093e-15
lhumerus -53.8211833994579 -5.935994081115359 88.9129290800537
lradius 114.71654749362757
lwrist 30.929359042730546
lhand -23.97333763555003 3.8264801948312552
lfingers 7.12502
lthumb 2.3434327511390953 33.692541842955556
rclavicle -1.5439971534747983e-15 -3.2959561927013866e-15
rhumerus -54.730507780767894 10.751770533393433 -95.39727821331587
rradius 118.46043911219675
rwrist -19.60538236045566
rhand -18.198276880308462 39.89206845742824
rfingers 7.12502
rthumb 7.956057854625245 10.145221458517318
58
root 0.7751081436297775 18.257189512930616 15.24293911416408 4.859969086786648 -0.5440896464159619 -1.0721439675340732
lfemur -10.023389254412422 -0.23337650824573142 -24.53095894269662
ltibia 55.47073656527403
lfoot 2.4998033678199585 -7.535064386285453
ltoes -13.731323318603712
rfemur -21.8295966284184 1.1523042300413266 27.64577550630864
rtibia 109.5530132145548
rfoot 17.010804077614964 -6.213561754498914
rtoes 6.081048663176776
lowerback 15.667550439249919 1.344007281240395 1.054555049494697
upperback -0.28229708616160987 2.2478470572857607 -0.04592181670709916
thorax -8.684861654707095 1.6471369288458426 -1.5365992236590578
lowerneck -18.53977589049827 -4.203691113731944 -2.8990161569126083
upperneck 6.700791163962911 -5.6583115451775425 6.776602805011923
head 5.35621250112634 -2.3212489627075605 1.8388508254681735
lclavicle -1.5429245947707008e-15 -3.30565469825189e-15
lhumerus -51.44848937329867 -7.186966960262641 89.78953967883585
lradius 116.61381613999018
lwrist 31.088262836857123
lhand -24.000974596762855 3.7959180852070142
lfingers 7.12502
lthumb 2.333261883756548 33.68606937333458
rclavicle -1.543997507586835e-15 -3.2959563834260678e-15
rhumerus -55.43077361072886 10.808407230838522 -95.47026349317223
rradius 116.48717508498659
rwrist -18.86357246917618
rhand -18.212156934883154 39.933945307929704
rfingers 7.12502
rthumb 7.961264578244687 10.211028766469262
59
root 0.7735147681364631 18.25419142799749 15.858567619564667 4.841942575685532 -0.4155845062963164 -0.984893177392933
lfemur -8.43783715658866 -0.015591441257428063 -24.79449754802196
ltibia 55.76612791778243
lfoot 2.010012048078767 -7.356101109336834
ltoes -13.549297773560859
rfemur -23.400374327127793 1.4719620564089009 27.367536129505268
rtibia 113.63161970691174
rfoot 17.384787119381343 -6.027616378685604
rtoes 3.742500283328666
lowerback 15.979241739714496 1.1238860613510058 0.5880483511245518
upperback -0.15621600950029046 1.7540629644652688 0.057745952338619455
thorax -8.834569953965081 1.5034033449409503 -1.1470723580723323
lowerneck -18.52520271029756 -4.182025024736753 -2.918607140128505
upperneck 6.819539381281978 -5.333364162293699 6.720945173891034
head 5.354277090590589 -2.2465698674185757 1.844397275646595
lclavicle -1.542926394435862e-15 -3.305654758922006e-15
lhumerus -49.19628321341413 -8.398301859391555 90.35353770317279
lradius 118.33164570472353
lwrist 31.297188005195203
lhand -24.021348287331985 3.7864903394354057
lfingers 7.12502
lthumb 2.3248037799056505 33.69270332492765
rclavicle -1.5439973165115858e-15 -3.2959562622528017e-15
rhumerus -55.344588282527035 11.0341297915034 -95.32791822655619
rradius 114.61164332278327
rwrist -18.431584071160096
rhand -18.228926110851404 39.9809266493057
rfingers 7.12502
rthumb 7.9610307576893495 10.264811802918842
60
root 0.7648515880436563 18.24265030136286 16.306777057635244 4.8181235024496 -0.2686790282412892 -0.947628168651921
lfemur -6.42762686293943 0.5017486186424095 -24.930408733070898
ltibia 55.23451404962553
lfoot 1.038543519958881 -7.482119083210339
ltoes -13.433551659867472
rfemur -24.48389504975745 1.8300211057938076 27.18407700848461
rtibia 113.52012721868681
rfoot 17.913832670618362 -5.628950113864552
rtoes 0.8072877082446803
lowerback 16.179765716405694 0.8888154551622867 0.17864896517069884
upperback -0.09170640613500436 1.2668261774135896 0.1861380050087582
thorax -8.963277666358817 1.3178485495909638 -0.7365481235836087
lowerneck -18.51524310598538 -4.152706703001445 -2.942141542356059
upperneck 6.989031010031132 -5.037070270498687 6.625136160078127
head 5.340286957335609 -2.2076533263943383 1.8430957938084238
lclavicle -1.5429260680306002e-15 -3.3056547296592944e-15
lhumerus -47.2179367712654 -9.409830852333291 90.3970188841747
lradius 119.76757791110096
lwrist 31.477903313563193
lhand -24.040171016913533 3.786367827132459
lfingers 7.12502
lthumb 2.303016771927585 33.691332174500374
rclavicle -1.543997392230528e-15 -3.295956297682135e-15
rhumerus -55.371581227396916 10.8879263551535 -95.26811830003103
rradius 112.95532451005145
rwrist -18.838402738227416
rhand -18.22997466392475 40.04285274644181
rfingers 7.12502
rthumb 7.9727117090753445 10.307060157868696
